<?xml version="1.0" encoding="utf-8"?>
<!-- Generator: Adobe Illustrator 25.0.0, SVG Export Plug-In . SVG Version: 6.00 Build 0)  -->
<svg version="1.1" id="Layer_1" xmlns="http://www.w3.org/2000/svg" xmlns:xlink="http://www.w3.org/1999/xlink" x="0px" y="0px"
	 viewBox="0 0 31.9 32" style="enable-background:new 0 0 31.9 32;" xml:space="preserve">
<style type="text/css">
	.st0{fill:#F6B502;}
</style>
<g>
	<polygon class="st0" points="15.9,13.3 17.8,9.9 15.9,6.4 14.1,9.9 	"/>
	<polygon class="st0" points="15.4,4.5 13.3,0.8 11.3,4.5 13.3,8.3 	"/>
	<polygon class="st0" points="20.6,4.5 18.6,0.8 16.6,4.5 18.6,8.3 	"/>
	<polygon class="st0" points="31.6,13.8 27.8,11.8 24,13.8 27.8,15.8 	"/>
	<polygon class="st0" points="24,19.1 27.8,21.1 31.6,19.1 27.8,17 	"/>
	<polygon class="st0" points="16.5,28.3 18.6,32 20.6,28.3 18.6,24.5 	"/>
	<polygon class="st0" points="11.3,28.3 13.3,32 15.3,28.3 13.3,24.5 	"/>
	<polygon class="st0" points="7.9,19 4.1,17 0.3,19 4.1,21.1 	"/>
	<polygon class="st0" points="7.9,13.8 4.1,11.7 0.3,13.8 4.1,15.8 	"/>
	<polygon class="st0" points="23,9.4 19.3,10.5 18.1,14.2 21.9,13.1 	"/>
	<polygon class="st0" points="22.5,14.6 19,16.4 22.5,18.2 25.9,16.4 	"/>
	<polygon class="st0" points="18.1,18.6 19.3,22.3 23,23.4 21.9,19.7 	"/>
	<polygon class="st0" points="15.9,19.5 14.1,22.9 16,26.4 17.8,22.9 	"/>
	<polygon class="st0" points="13.8,18.6 10,19.7 8.9,23.5 12.6,22.3 	"/>
	<polygon class="st0" points="9.4,18.3 12.8,16.4 9.4,14.6 6,16.4 	"/>
	<polygon class="st0" points="13.7,14.2 12.6,10.5 8.9,9.4 10,13.1 	"/>
	<polygon class="st0" points="7.6,8.8 3.5,7.6 4.7,11.7 	"/>
	<polygon class="st0" points="11.3,5.1 7.2,3.9 8.4,8 	"/>
	<polygon class="st0" points="23.5,8.1 24.7,3.9 20.6,5.2 	"/>
	<polygon class="st0" points="27.2,11.8 28.4,7.6 24.3,8.9 	"/>
	<polygon class="st0" points="24.3,24 28.4,25.2 27.2,21.1 	"/>
	<polygon class="st0" points="20.6,27.7 24.7,28.9 23.5,24.8 	"/>
	<polygon class="st0" points="8.4,24.7 7.1,28.9 11.3,27.6 	"/>
	<polygon class="st0" points="4.7,21.1 3.4,25.2 7.6,23.9 	"/>
	<circle class="st0" cx="15.9" cy="16.4" r="1.7"/>
</g>
</svg>
